<svg xmlns="http://www.w3.org/2000/svg" width="281" height="72" fill="none" viewBox="0 0 281 72"><path fill="#fff" d="M0 0h280.18v72H0z"/><path fill="#1A1919" fill-rule="evenodd" d="M42.093 23.965c-2.644.178-3.658.794-3.878 2.602-.132 1.189-.22 3.085-.22 7.141v3.613c0 5.202-.793 8.949-3.35 11.638-2.026 2.115-4.979 3.04-7.887 3.04-2.554 0-5.108-.616-7.048-2.114-2.644-2.028-3.878-5.334-3.878-10.491V28.417c0-3.967-.352-4.143-3.832-4.452V22.73h11.41v1.235c-3.48.22-3.832.485-3.832 4.452v10.006c0 7.097 2.82 11.153 8.284 11.153 6.343 0 8.326-5.29 8.326-12.562v-3.306c0-4.056-.132-5.908-.31-7.274-.262-1.72-1.188-2.249-4.272-2.47V22.73h10.487z" clip-rule="evenodd"/><path fill="#1A1919" fill-rule="evenodd" d="M65.685 51.383V50.15c3.568-.354 3.744-.574 3.702-5.247l-.134-17.984h-.175L58.327 51.074h-.881l-9.87-23.539h-.087L46.828 40.1c-.176 3.615-.176 5.554-.133 7.317.088 2.117 1.145 2.425 4.053 2.734v1.233H40.482V50.15c2.557-.31 3.438-.795 3.745-2.647.22-1.542.485-3.481.839-8.065l.616-9.17c.396-5.729.176-5.905-3.834-6.303V22.73h7.225L59.12 44.772 69.296 22.73h7.491v1.235c-3.878.354-4.185.442-4.054 4.982l.443 15.956c.131 4.673.263 4.893 4.096 5.247v1.233zM87.986 40.807c-.926.485-3.04 1.411-3.967 1.852-1.718.793-2.686 1.632-2.686 3.219 0 2.292 1.76 3.392 3.129 3.392 1.145-.042 2.687-.792 3.524-1.585zm3.215 11.107c-.661 0-1.587-.396-2.07-.839-.572-.616-.839-1.233-1.059-1.983-1.76 1.19-3.876 2.822-5.198 2.822-3.128 0-5.288-2.602-5.288-5.378 0-2.159 1.146-3.526 3.57-4.365 2.642-.881 5.86-2.07 6.83-2.865v-.792c0-3.175-1.5-4.982-3.701-4.982-.883 0-1.544.354-1.984.881-.572.575-.969 1.543-1.322 2.865-.176.75-.66 1.06-1.277 1.06-.794 0-1.938-.882-1.938-1.897 0-.66.572-1.146 1.408-1.76 1.235-.884 4.099-2.603 6.61-3.088 1.322 0 2.644.396 3.612 1.19 1.542 1.279 1.982 3.086 1.982 5.379v8.197c0 1.983.794 2.646 1.542 2.646.53 0 1.146-.22 1.587-.485l.44 1.144zM107.044 37.321c-.839-2.6-2.381-4.363-4.539-4.363-1.676 0-2.864 1.322-2.864 3.043 0 1.939 1.762 2.996 3.745 3.833 3.304 1.367 5.551 2.952 5.551 5.995 0 4.012-3.745 6.084-7.271 6.084-2.245 0-4.274-.84-5.064-1.5-.31-.617-.708-3.613-.708-5.2l1.146-.22c.794 2.909 2.777 5.464 5.42 5.464 1.631 0 3.129-1.233 3.129-3.085 0-1.94-1.28-2.997-3.482-4.011-2.642-1.234-5.505-2.69-5.505-6.084 0-3.084 2.641-5.686 6.695-5.686 1.807-.044 2.997.397 3.922.75.352 1.013.837 3.614.968 4.715zM121.01 37.321c-.838-2.6-2.378-4.363-4.538-4.363-1.674 0-2.864 1.322-2.864 3.043 0 1.939 1.764 2.996 3.745 3.833 3.306 1.367 5.551 2.952 5.551 5.995 0 4.012-3.743 6.084-7.269 6.084-2.247 0-4.274-.84-5.066-1.5-.31-.617-.706-3.613-.706-5.2l1.146-.22c.792 2.909 2.775 5.464 5.418 5.464 1.631 0 3.13-1.233 3.13-3.085 0-1.94-1.279-2.997-3.482-4.011-2.643-1.234-5.506-2.69-5.506-6.084 0-3.084 2.643-5.686 6.697-5.686 1.806-.044 2.995.397 3.92.75.354 1.013.837 3.614.97 4.715z" clip-rule="evenodd"/><path fill="#6D1327" fill-rule="evenodd" d="M137.777 27.805h-.089a2173 2173 0 0 0-4.141 11.24h8.106zm4.319 23.581v-1.233c2.776-.354 3.172-.706 2.599-2.424-.572-1.72-1.453-4.103-2.422-6.79h-9.384c-.706 1.984-1.366 3.836-1.938 5.688-.97 2.776-.574 3.216 2.73 3.526v1.233h-9.561v-1.233c2.777-.398 3.393-.661 4.935-4.541l9.12-23.14 1.366-.399c2.732 7.582 5.683 15.957 8.504 23.626 1.409 3.793 1.983 4.189 4.846 4.454v1.233z" clip-rule="evenodd"/><path fill="#6D1327" fill-rule="evenodd" d="M177.257 51.387v-1.146c2.599-.263 3.083-.44 3.083-3.57v-7.362c0-3.13-1.101-5.112-3.876-5.112-1.586 0-3.261.88-4.934 2.291.086.53.131 1.013.131 1.852v8.595c0 2.776.398 3.043 2.819 3.306v1.146h-9.429v-1.146c2.734-.263 3.13-.485 3.13-3.393v-7.582c0-3.261-1.146-5.069-3.834-5.069-1.762 0-3.48 1.19-4.803 2.291v10.36c0 2.863.353 3.13 2.512 3.393v1.146h-9.294v-1.146c2.906-.263 3.304-.53 3.304-3.393v-9.126c0-2.82-.133-3.04-2.69-3.438v-1.013c1.94-.353 4.187-.926 6.125-1.81v3.573c.926-.618 1.894-1.41 3.216-2.248 1.145-.706 2.204-1.19 3.613-1.19 2.116 0 4.009 1.322 4.89 3.614a41 41 0 0 1 3.658-2.468c.926-.617 2.069-1.147 3.304-1.147 3.438 0 5.594 2.425 5.594 6.745v8.508c0 2.952.354 3.13 2.866 3.393v1.146zM200.193 51.385V50.24c2.554-.263 2.908-.53 2.908-3.393v-7.319c0-3.613-1.366-5.42-4.319-5.42-1.673 0-3.348.837-4.581 2.248v10.491c0 2.819.22 3.13 2.819 3.393v1.146h-9.34l.044-1.146c2.643-.218 2.995-.485 2.995-3.393V25.82c0-2.776-.087-2.996-2.995-3.261v-1.013c2.114-.312 4.757-1.015 6.477-1.545v14.81c1.542-1.585 3.92-3.217 6.301-3.217 3.569-.044 6.079 2.249 6.079 7.538v7.715c0 2.908.309 3.175 2.908 3.393v1.146zM217.184 33.227c-1.983 0-3.925 1.85-4.585 5.42 2.469 0 4.892-.044 7.446-.131.794 0 1.059-.265 1.059-.882.043-2.292-1.455-4.407-3.878-4.407zm7.485 14.411c-2.776 3.482-5.816 4.276-7.182 4.276-5.418 0-8.591-4.41-8.591-9.389 0-3.04 1.1-5.73 2.908-7.715 1.805-2.026 4.186-3.217 6.431-3.217h.046c3.656 0 6.609 3.263 6.609 6.7 0 .882-.221 1.234-1.015 1.411-.748.132-6.254.573-11.497.749.043 5.994 3.478 8.463 6.564 8.463 1.76 0 3.436-.704 5.02-2.204zM233.063 36.268c1.322-2.204 3.217-4.673 5.333-4.673 1.498 0 2.555 1.147 2.555 2.204 0 .884-.574 1.763-1.411 2.16-.527.22-.925.175-1.188-.088-.617-.66-1.148-.925-1.851-.925-1.146 0-2.557 1.322-3.525 3.79v8.068c0 2.907.221 3.174 3.612 3.437v1.146h-10.133v-1.146c2.73-.263 3.041-.53 3.041-3.437v-9.125c0-2.91-.22-3.085-2.734-3.44v-.968c2.159-.353 4.099-.883 6.214-1.81v4.807zM253.048 37.321c-.838-2.6-2.38-4.363-4.538-4.363-1.676 0-2.864 1.322-2.864 3.043 0 1.939 1.762 2.996 3.745 3.833 3.304 1.367 5.551 2.952 5.551 5.995 0 4.012-3.745 6.084-7.271 6.084-2.245 0-4.272-.84-5.066-1.5-.308-.617-.702-3.613-.702-5.2l1.144-.22c.792 2.909 2.777 5.464 5.418 5.464 1.633 0 3.13-1.233 3.13-3.085 0-1.94-1.279-2.997-3.481-4.011-2.644-1.234-5.509-2.69-5.509-6.084 0-3.084 2.643-5.686 6.697-5.686 1.808-.044 2.997.397 3.92.75.356 1.013.839 3.614.972 4.715zM265.185 51.34c-.748.397-1.453.575-1.848.575-2.778 0-4.318-1.763-4.318-5.247V33.842h-3.041l-.176-.441 1.19-1.278h2.027v-3.219l2.864-2.91.616.09v6.04h4.979c.396.438.265 1.408-.264 1.718h-4.715V45.17c0 3.57 1.453 4.232 2.554 4.232 1.104 0 2.116-.44 2.732-.748l.397 1.144z" clip-rule="evenodd"/></svg>